<?xml version="1.0" encoding="UTF-8"?>
<svg version="1.1" xmlns="http://www.w3.org/2000/svg" width="2481" height="2481">
<path d="M0 0 C1.97057373 0.00031723 1.97057373 0.00031723 3.98095703 0.00064087 C25.87467003 0.02328075 47.35187968 1.07660223 69 4.375 C70.28084473 4.56755371 71.56168945 4.76010742 72.88134766 4.95849609 C162.23936085 18.83698861 254.56888851 59.90885303 318.2109375 125.58203125 C320.06917036 127.44432138 322.00473825 129.16092379 324 130.875 C330.16008537 136.19123806 335.74019915 141.96136591 341.03515625 148.1328125 C342.93132859 150.29663541 344.88302131 152.40026445 346.84985352 154.49975586 C352.80694117 160.88272074 358.2487848 167.5629922 363.55224609 174.49462891 C365.02595919 176.4087163 366.52059252 178.30483978 368.01953125 180.19921875 C383.12681968 199.42410846 396.06086689 220.06383812 408 241.375 C408.66757324 242.55328369 408.66757324 242.55328369 409.34863281 243.75537109 C437.72041915 294.14127535 454.69817131 352.04099873 461 409.375 C461.08613556 410.15089478 461.17227112 410.92678955 461.26101685 411.72619629 C463.06288398 428.44386188 463.36058125 445.071326 463.3125 461.875 C463.31057621 463.21152739 463.30873574 464.5480549 463.30697632 465.88458252 C463.2699769 485.222195 462.84874668 504.22308455 460 523.375 C459.82839355 524.58462402 459.65678711 525.79424805 459.47998047 527.04052734 C454.94441939 558.4489838 448.13669216 590.67990914 436.3203125 620.2421875 C435.89024902 621.32193848 435.46018555 622.40168945 435.01708984 623.51416016 C434.20074591 625.51837102 433.35664065 627.51160749 432.47900391 629.48974609 C429.58114213 636.51260605 430.14299275 640.45702499 433 647.375 C433.73757034 649.40071187 434.47036645 651.42816632 435.19921875 653.45703125 C435.59971436 654.53799072 436.00020996 655.6189502 436.4128418 656.73266602 C452.8542283 701.29540504 463.01684077 749.83846228 463.203125 797.4609375 C463.21018463 798.66839127 463.21724426 799.87584503 463.22451782 801.11988831 C463.24203818 804.99663318 463.24850295 808.87321681 463.25 812.75 C463.25044186 813.74218473 463.25044186 813.74218473 463.25089264 814.7544136 C463.25233489 834.80389462 462.95297887 854.50805858 460 874.375 C459.79886938 875.78379042 459.5982073 877.19264779 459.39794922 878.6015625 C447.02315874 964.5744431 411.36451249 1046.51364446 354.55004883 1112.52148438 C353.41594838 1113.87761772 352.31014773 1115.25755637 351.22143555 1116.65039062 C344.75126597 1124.85039195 337.49904316 1132.14698654 330.08862305 1139.4921875 C327.93281127 1141.62964882 325.78520378 1143.77509848 323.63867188 1145.921875 C322.2478676 1147.30776527 320.85660714 1148.69319792 319.46484375 1150.078125 C318.83440659 1150.70744934 318.20396942 1151.33677368 317.5544281 1151.98516846 C313.19088858 1156.30314619 308.65524994 1160.37472694 304 1164.375 C303.47844833 1164.82947006 302.95689667 1165.28394012 302.41954041 1165.75218201 C293.61320977 1173.42207737 284.43833503 1180.50371506 275 1187.375 C273.9788208 1188.11967529 273.9788208 1188.11967529 272.93701172 1188.87939453 C257.10155224 1200.37329575 240.67002793 1210.81756932 223.42675781 1220.07128906 C221.75639852 1220.96864506 220.08924896 1221.87199308 218.42480469 1222.78027344 C134.23874134 1268.65815361 34.7151771 1285.57143147 -130 1258.375 C-150.20693308 1252.40685732 -169.81947664 1245.11020442 -189 1236.375 C-190.03527832 1235.90481445 -191.07055664 1235.43462891 -192.13720703 1234.95019531 C-225.62961907 1219.60405212 -257.29913604 1200.51949811 -286 1177.375 C-287.53914063 1176.15103516 -287.53914063 1176.15103516 -289.109375 1174.90234375 C-294.45178777 1170.60037325 -299.59569584 1166.11287508 -304.6640625 1161.4921875 C-306.76918748 1159.58419797 -308.90613634 1157.72452931 -311.0625 1155.875 C-315.59624621 1151.92862172 -319.78620118 1147.65688533 -324 1143.375 C-326.79931444 1140.56152376 -329.61705706 1137.76850411 -332.453125 1134.9921875 C-338.94263818 1128.61327168 -345.20935786 1122.24668145 -350.84765625 1115.0859375 C-352.78086975 1112.65100072 -354.78361355 1110.29584266 -356.82348633 1107.95019531 C-377.38026258 1084.21074295 -394.28123707 1057.04234056 -409 1029.375 C-409.45987305 1028.51261719 -409.91974609 1027.65023438 -410.39355469 1026.76171875 C-455.68454345 941.02468112 -470.88681314 840.52743296 -441.625 677.5 C-439.42724032 670.42141427 -437.08537522 663.45293615 -434.3203125 656.57421875 C-433.67521729 654.95652588 -433.67521729 654.95652588 -433.01708984 653.30615234 C-432.20024473 651.2956746 -431.35607267 649.29598026 -430.47900391 647.31103516 C-427.59790888 640.28860161 -428.12675371 636.28920425 -431 629.375 C-431.6642027 627.55616008 -432.32420858 625.73578324 -432.98046875 623.9140625 C-433.33584717 622.96289551 -433.69122559 622.01172852 -434.05737305 621.03173828 C-453.62799105 568.5305643 -463.33212408 511.44004829 -462 455.375 C-461.98211426 454.54226563 -461.96422852 453.70953125 -461.94580078 452.8515625 C-460.460503 390.23054092 -447.0897368 328.40413817 -421 271.375 C-420.2889209 269.81265625 -420.2889209 269.81265625 -419.56347656 268.21875 C-399.48612851 224.44288891 -372.48125583 184.84795044 -340 149.375 C-339.53980469 148.8696875 -339.07960938 148.364375 -338.60546875 147.84375 C-330.17782483 138.59335456 -321.70147519 129.40780981 -312.171875 121.26953125 C-310.02979831 119.40099313 -307.95289095 117.47202247 -305.87866211 115.52880859 C-299.43411143 109.51222044 -292.67530982 104.02975455 -285.67773438 98.671875 C-284.16030747 97.49891637 -282.66467877 96.29789005 -281.171875 95.09375 C-215.88258625 43.00502783 -133.71857776 11.43094473 -51 2.375 C-50.24781189 2.28919678 -49.49562378 2.20339355 -48.72064209 2.11499023 C-32.48285432 0.2969452 -16.32908048 -0.02435138 0 0 Z M-381 724.375 C-384.07314611 737.67109945 -386.52554617 750.96832059 -388.25 764.5 C-388.41274414 765.76593994 -388.57548828 767.03187988 -388.74316406 768.33618164 C-390.5915965 783.34243114 -391.23994477 798.20937625 -391.25 813.3125 C-391.25067474 814.23163177 -391.25134949 815.15076355 -391.25204468 816.0977478 C-391.14315533 910.23207711 -356.07204537 1001.7388792 -294 1072.375 C-293.21109375 1073.27605469 -292.4221875 1074.17710937 -291.609375 1075.10546875 C-285.45481354 1081.96645 -278.98815295 1088.5184442 -272.5 1095.0625 C-271.63391113 1095.94164062 -270.76782227 1096.82078125 -269.87548828 1097.7265625 C-264.64532802 1102.96361362 -259.23247439 1107.78094928 -253.45556641 1112.4074707 C-251.50428634 1113.97093919 -249.59569099 1115.55684426 -247.71484375 1117.203125 C-187.87904883 1169.38061142 -107.56729475 1199.28412607 -29 1205.375 C-28.26297852 1205.43284668 -27.52595703 1205.49069336 -26.76660156 1205.55029297 C60.69721582 1212.10327351 151.20989116 1187.8975732 223 1137.375 C223.75893555 1136.84519531 224.51787109 1136.31539062 225.29980469 1135.76953125 C235.29833625 1128.76848046 244.83530318 1121.43473338 254 1113.375 C254.73347656 1112.74078125 255.46695313 1112.1065625 256.22265625 1111.453125 C258.1604404 1109.77345524 260.08127932 1108.07640888 262 1106.375 C262.72799805 1105.73111328 263.45599609 1105.08722656 264.20605469 1104.42382812 C270.33901768 1098.95624551 276.25589097 1093.31221441 282.0625 1087.5 C283.38109009 1086.18020142 283.38109009 1086.18020142 284.72631836 1084.83374023 C289.79045983 1079.72141833 294.60780306 1074.60263818 299.01953125 1068.9140625 C300.8944987 1066.51025808 302.85972433 1064.20871643 304.86279297 1061.91137695 C333.55176227 1028.84484053 355.1656958 988.36121961 370 947.375 C370.34514648 946.42334961 370.69029297 945.47169922 371.04589844 944.49121094 C382.22388215 913.26632686 389.36790322 880.45837941 392 847.375 C392.12918823 845.78703613 392.12918823 845.78703613 392.26098633 844.16699219 C392.99868313 834.26884848 393.20249774 824.42196461 393.1875 814.5 C393.18656342 813.69108307 393.18562683 812.88216614 393.18466187 812.04873657 C393.11072339 782.38993745 389.4905649 753.3124517 383 724.375 C379.38192803 727.91937881 376.34891817 731.51369774 373.5 735.6875 C367.74174457 743.92173936 361.43908729 751.66717403 355 759.375 C354.19780029 760.33599609 354.19780029 760.33599609 353.37939453 761.31640625 C348.11435814 767.59897341 342.82816955 773.76135503 336.91870117 779.45385742 C335.09899601 781.27587803 333.43354532 783.15722119 331.76953125 785.12109375 C328.07845796 789.36766014 324.11738785 793.23289428 320 797.0625 C319.26160889 797.75239014 318.52321777 798.44228027 317.76245117 799.15307617 C254.47364949 857.95945711 175.68325923 898.90420574 15.7890625 923.578125 C14.67057419 923.58518463 13.55208588 923.59224426 12.39970398 923.59951782 C-11.21924113 923.71468978 -34.58692574 923.82563682 -58 920.375 C-59.04782654 920.22227631 -59.04782654 920.22227631 -60.11682129 920.06646729 C-108.83590248 912.93068222 -155.55195289 899.84250771 -200 878.375 C-201.00691895 877.89272949 -202.01383789 877.41045898 -203.05126953 876.91357422 C-235.5753238 861.27333806 -266.78016821 841.60817668 -294.0703125 817.90234375 C-296.95745387 815.41170312 -299.90286667 813.01317759 -302.875 810.625 C-306.58890341 807.60443023 -310.02048903 804.47598542 -313.34375 801.03515625 C-315.05511835 799.31975165 -316.84189408 797.75702143 -318.6875 796.1875 C-326.40477295 789.52121753 -333.63851074 782.17824944 -340.2421875 774.41015625 C-342.3526414 771.96671962 -344.55292879 769.61581179 -346.75 767.25 C-352.03339843 761.45427202 -356.86086503 755.35878137 -361.63867188 749.14355469 C-362.9764695 747.4055694 -364.32295392 745.67467303 -365.671875 743.9453125 C-370.20351782 738.11794419 -374.58784167 732.22499432 -378.72265625 726.10546875 C-379.14417969 725.53441406 -379.56570313 724.96335937 -380 724.375 C-380.33 724.375 -380.66 724.375 -381 724.375 Z " fill="#262261" transform="translate(1239,602.625)"/>
<path d="M0 0 C0 165 0 330 0 500 C-13.43076321 498.77902153 -26.5157134 497.53874681 -39.75 495.25 C-40.51514923 495.11961334 -41.28029846 494.98922668 -42.06863403 494.85488892 C-84.47553802 487.60331545 -125.23997697 474.72030713 -164 456 C-165.00691895 455.51772949 -166.01383789 455.03545898 -167.05126953 454.53857422 C-199.5753238 438.89833806 -230.78016821 419.23317668 -258.0703125 395.52734375 C-260.95745387 393.03670312 -263.90286667 390.63817759 -266.875 388.25 C-270.5903726 385.22823531 -274.02295258 382.09829616 -277.34765625 378.65625 C-279.03757536 376.96233581 -280.80059906 375.4225168 -282.625 373.875 C-290.71986341 366.88469885 -298.3613391 359.15646739 -305.27734375 351 C-307.37372279 348.56610869 -309.5639738 346.22865575 -311.75 343.875 C-317.03446293 338.0781043 -321.860767 331.98121347 -326.63867188 325.76416016 C-327.97231952 324.03587144 -329.31984542 322.31940021 -330.671875 320.60546875 C-332.37179893 318.44730999 -334.03831568 316.26938799 -335.6796875 314.06640625 C-337.16222321 312.10716293 -338.7052965 310.1914025 -340.3203125 308.33984375 C-343.38178094 304.48099665 -345.04020832 301.70081207 -344.921875 296.6953125 C-343.94070859 291.99148532 -342.51740483 287.55446693 -341 283 C-340.40632628 281.11982404 -339.81279896 279.23960053 -339.22180176 277.35858154 C-334.30338235 261.75917235 -329.03573709 246.35935182 -322.15673828 231.5 C-320.9366883 228.86316763 -319.74860803 226.21300763 -318.55859375 223.5625 C-308.83935693 202.27405798 -296.80942985 181.89623674 -283 163 C-282.60232422 162.45359863 -282.20464844 161.90719727 -281.79492188 161.34423828 C-265.86975517 139.56191595 -247.9840705 117.74872467 -227.453125 100.1171875 C-225.57137176 98.49312659 -223.71152288 96.8525554 -221.859375 95.1953125 C-207.24090999 82.20089553 -191.55010138 70.42754413 -175 60 C-173.93555664 59.32686768 -173.93555664 59.32686768 -172.84960938 58.64013672 C-123.39412804 27.60820421 -59.53066176 0 0 0 Z " fill="#F4811F" transform="translate(1203,1026)"/>
<path d="M0 0 C10.88574814 1.20952757 21.46870188 2.43553356 32.1875 4.4375 C33.40381104 4.66211914 34.62012207 4.88673828 35.87329102 5.11816406 C38.23567115 5.5558354 40.5975997 5.99595408 42.95898438 6.43896484 C45.33972645 6.87818653 47.71936243 7.29189648 50.109375 7.67578125 C116.19497764 19.07787466 180.83094402 57.26689695 229.43212891 102.54980469 C231.03046219 104.02817587 232.64377743 105.48844409 234.26171875 106.9453125 C241.08497457 113.11190319 247.49292285 119.49213187 253.58007812 126.39306641 C255.05901386 128.06678632 256.5528672 129.72644841 258.046875 131.38671875 C275.63900928 151.12066897 290.92729628 173.03265568 304 196 C304.48581543 196.85271484 304.97163086 197.70542969 305.47216797 198.58398438 C348.19458593 274.16676628 348.19458593 274.16676628 344 302 C342.6453882 304.37424367 341.33995319 306.35790835 339.6875 308.5 C339.23818115 309.10384521 338.7888623 309.70769043 338.32592773 310.32983398 C336.90042366 312.23305324 335.45319965 314.11786734 334 316 C333.54592773 316.59441895 333.09185547 317.18883789 332.62402344 317.80126953 C323.13176049 330.20710125 313.03637941 342.04638621 302.40039062 353.48193359 C300.98738246 355.0136778 299.59348487 356.56097056 298.203125 358.11328125 C242.04080792 420.50308146 163.88722 463.73079278 3 500 C2.01 500 1.02 500 0 500 C0 335 0 170 0 0 Z " fill="#F4811F" transform="translate(1277,1026)"/>
<path d="M0 0 C9.9640297 4.54112858 18.01966816 14.58103046 25.03515625 22.7578125 C26.93132859 24.92163541 28.88302131 27.02526445 30.84985352 29.12475586 C36.80694117 35.50772074 42.2487848 42.1879922 47.55224609 49.11962891 C49.02595919 51.0337163 50.52059252 52.92983978 52.01953125 54.82421875 C67.12681968 74.04910846 80.06086689 94.68883812 92 116 C92.44504883 116.78552246 92.89009766 117.57104492 93.34863281 118.38037109 C121.72041915 168.76627535 138.69817131 226.66599873 145 284 C145.08613556 284.77589478 145.17227112 285.55178955 145.26101685 286.35119629 C147.06288398 303.06886188 147.36058125 319.696326 147.3125 336.5 C147.31057621 337.83652739 147.30873574 339.1730549 147.30697632 340.50958252 C147.2699769 359.847195 146.84874668 378.84808455 144 398 C143.82839355 399.20962402 143.65678711 400.41924805 143.47998047 401.66552734 C138.54380456 435.8482147 130.06740197 469.42615958 118.0625 501.8125 C117.68496582 502.83327637 117.30743164 503.85405273 116.91845703 504.90576172 C116.56509277 505.83018066 116.21172852 506.75459961 115.84765625 507.70703125 C115.53836182 508.5163208 115.22906738 509.32561035 114.91040039 510.15942383 C114 512 114 512 112 513 C111.79020508 512.48953125 111.58041016 511.9790625 111.36425781 511.453125 C92.75539604 466.45677756 67.2819548 423.88190747 34.765625 387.5 C33.79882812 386.4171875 33.79882812 386.4171875 32.8125 385.3125 C32.26207031 384.71050781 31.71164062 384.10851563 31.14453125 383.48828125 C30 382 30 382 30 380 C29.34 380 28.68 380 28 380 C26.71069336 378.69165039 26.71069336 378.69165039 25.15234375 376.78515625 C20.4614197 371.27134823 15.35539763 366.2054101 10.23022461 361.09985352 C8.56573723 359.4407268 6.90666553 357.77631949 5.24804688 356.11132812 C-0.32852864 350.53100148 -5.96951928 345.09308227 -12 340 C-12.96421875 339.154375 -13.9284375 338.30875 -14.921875 337.4375 C-44.32598576 312.09473051 -77.32753912 291.31371168 -112 274 C-112.78971191 273.60119629 -113.57942383 273.20239258 -114.39306641 272.79150391 C-162.60898306 248.56493958 -218.1003847 232.38494317 -272.06591797 229.2019043 C-274 229 -274 229 -278 228 C-278 193.35 -278 158.7 -278 123 C-275.4429665 121.72148325 -273.3656445 121.70540449 -270.5078125 121.4921875 C-249.99224581 119.79985946 -230.11664471 116.31144064 -210 112 C-209.02450195 111.79681152 -208.04900391 111.59362305 -207.04394531 111.38427734 C-148.0293121 98.92563255 -88.1830223 70.30485968 -40.78320312 33.38623047 C-39.03613785 32.02809292 -37.27821257 30.68556601 -35.515625 29.34765625 C-25.64043508 21.8395906 -16.02556598 14.11479016 -6.97045898 5.62915039 C-4.72023157 3.52779298 -2.57119514 1.71413009 0 0 Z " fill="#F4811F" transform="translate(1555,728)"/>
<path d="M0 0 C3.23336128 1.24204275 5.52019152 3.18791984 8.0625 5.5 C10.33432007 7.55815561 12.43707257 9.29138171 15 11 C15 11.66 15 12.32 15 13 C15.5882959 13.27223389 16.1765918 13.54446777 16.78271484 13.82495117 C18.95465201 14.97596786 20.61331342 16.2069458 22.4765625 17.80078125 C23.13785156 18.35918701 23.79914063 18.91759277 24.48046875 19.49291992 C25.18816406 20.09338135 25.89585937 20.69384277 26.625 21.3125 C40.63583106 33.00785369 55.52695246 43.34072253 71 53 C71.6084375 53.38075684 72.216875 53.76151367 72.84375 54.15380859 C132.45114583 91.22869378 201.02227462 115.80545071 271.19140625 121.640625 C275 122 275 122 280 123 C280 157.65 280 192.3 280 228 C274.72 228.66 269.44 229.32 264 230 C216.11140492 236.07791095 170.01619277 247.98718434 126 268 C125.08798828 268.40927734 124.17597656 268.81855469 123.23632812 269.24023438 C83.06605701 287.356239 44.95048431 312.17447926 12.359375 341.859375 C9.50708659 344.44721283 6.6050782 346.973899 3.69140625 349.4921875 C1.96919436 350.98351619 1.96919436 350.98351619 0.40234375 352.6953125 C-1 354 -1 354 -3 354 C-3.23775146 354.56517334 -3.47550293 355.13034668 -3.72045898 355.71264648 C-5.28362578 358.50701964 -7.17557161 360.36620911 -9.47265625 362.59765625 C-10.37306641 363.48259766 -11.27347656 364.36753906 -12.20117188 365.27929688 C-14.0810071 367.10780554 -15.96120434 368.9359421 -17.84179688 370.76367188 C-23.26627657 376.09588544 -28.27382988 381.55331148 -32.99462891 387.52050781 C-35.00779195 390.00963417 -37.12458895 392.35154858 -39.3125 394.6875 C-69.22124111 427.69559252 -93.46329588 470.80329851 -110 512 C-110.66 512 -111.32 512 -112 512 C-132.78691404 457.71022637 -144.74871416 402.25806494 -146 344 C-146.02964844 342.7521875 -146.05929687 341.504375 -146.08984375 340.21875 C-146.12710039 336.80769791 -146.08103258 333.41041473 -146 330 C-145.98211426 329.16726563 -145.96422852 328.33453125 -145.94580078 327.4765625 C-144.460503 264.85554092 -131.0897368 203.02913817 -105 146 C-104.2889209 144.43765625 -104.2889209 144.43765625 -103.56347656 142.84375 C-83.48612851 99.06788891 -56.48125583 59.47295044 -24 24 C-23.53980469 23.4946875 -23.07960938 22.989375 -22.60546875 22.46875 C-3.92149558 1.96074779 -3.92149558 1.96074779 0 0 Z " fill="#F4811F" transform="translate(923,728)"/>
<path d="M0 0 C0 58.41 0 116.82 0 177 C-37.97418956 172.10010457 -37.97418956 172.10010457 -55 168 C-56.02335449 167.75411133 -57.04670898 167.50822266 -58.10107422 167.25488281 C-116.79485638 152.87242489 -180.19595387 123.79967731 -223 80 C-221.79543068 76.38629203 -220.87284484 75.98850178 -217.72265625 73.99609375 C-216.82587158 73.42536133 -215.92908691 72.85462891 -215.00512695 72.26660156 C-213.54852661 71.36119629 -213.54852661 71.36119629 -212.0625 70.4375 C-210.56819458 69.49922363 -210.56819458 69.49922363 -209.04370117 68.54199219 C-200.90965125 63.47630504 -192.65146409 58.69885002 -184.20214844 54.18115234 C-181.97294579 52.98548911 -179.75588738 51.7692146 -177.5390625 50.55078125 C-125.95464779 22.47158014 -59.50370656 0 0 0 Z " fill="#F4811F" transform="translate(1203,604)"/>
<path d="M0 0 C78.3375113 5.22250075 159.30748406 31.45217206 223 78 C221.42617771 82.16427512 218.38085215 84.59182118 215.0625 87.375 C214.44842285 87.89392822 213.8343457 88.41285645 213.20166016 88.94750977 C171.19368525 123.94721836 122.12689833 148.24497913 70 164 C68.74316406 164.39010254 68.74316406 164.39010254 67.4609375 164.78808594 C54.59408863 168.77305073 41.4446339 171.17131019 28.18066406 173.44677734 C26.10617536 173.80759953 24.03485228 174.18727907 21.96777344 174.58837891 C14.29692984 176.0220991 8.09975231 176 0 176 C0 117.92 0 59.84 0 0 Z " fill="#F4811F" transform="translate(1277,604)"/>
</svg>
